<?xml version="1.0" encoding="UTF-8" standalone="no"?>
<!-- Created with Inkscape (http://www.inkscape.org/) -->

<svg
   width="104.30756mm"
   height="57.285919mm"
   viewBox="0 0 394.23329 216.51372"
   version="1.1"
   id="svg1"
   xml:space="preserve"
   inkscape:export-filename="растровый.png"
   inkscape:export-xdpi="196"
   inkscape:export-ydpi="196"
   sodipodi:docname="ц.svg"
   xmlns:inkscape="http://www.inkscape.org/namespaces/inkscape"
   xmlns:sodipodi="http://sodipodi.sourceforge.net/DTD/sodipodi-0.dtd"
   xmlns="http://www.w3.org/2000/svg"
   xmlns:svg="http://www.w3.org/2000/svg"><sodipodi:namedview
     id="namedview1"
     pagecolor="#ffffff"
     bordercolor="#000000"
     borderopacity="0.25"
     inkscape:showpageshadow="2"
     inkscape:pageopacity="0.0"
     inkscape:pagecheckerboard="0"
     inkscape:deskcolor="#d1d1d1"
     inkscape:document-units="mm"
     inkscape:zoom="0.4894542"
     inkscape:cx="269.68816"
     inkscape:cy="736.5347"
     inkscape:window-width="1920"
     inkscape:window-height="991"
     inkscape:window-x="-9"
     inkscape:window-y="-9"
     inkscape:window-maximized="1"
     inkscape:current-layer="layer1" /><defs
     id="defs1" /><g
     inkscape:label="Слой 1"
     inkscape:groupmode="layer"
     id="layer1"
     transform="translate(-174.14795,-159.45701)"><path
       style="fill:#ffffff"
       d="m 238.64796,374.03727 c -27.47128,-6.31681 -49.39547,-24.26354 -58.56404,-47.93941 -5.89475,-15.22194 -5.93596,-15.8787 -5.93596,-94.59869 v -72.04216 h 29.96781 29.96781 l 0.28219,70.25 0.28219,70.25 2.2882,4.96346 c 11.49636,24.93747 48.42813,10.33592 41.25311,-16.31007 -3.46859,-12.88135 -18.30943,-18.44878 -31.26317,-11.72814 l -4.77814,2.47899 V 246.98872 214.6162 l 6.69868,-0.71737 c 64.5687,-6.91472 111.49604,58.5371 83.29966,116.18206 -16.11778,32.95133 -57.25369,52.29056 -93.49834,43.95638 z m 95.50004,-7.83026 c 4e-5,-6.04209 0.21069,-6.55539 6.33209,-15.43014 23.66975,-34.31618 23.35584,-80.21413 -0.77612,-113.47845 l -5.55601,-7.65859 v -35.09141 -35.09141 h 37.5 37.5 v 106.5 106.5 h -37.5 -37.5 z m 88.20634,-6.5 0.40721,-12.75 24.62516,-63 24.62515,-63 -24.93195,-0.26717 -24.93195,-0.26717 v -30.48283 -30.48283 h 73.11664 73.11663 l -0.58213,2.25 c -0.32016,1.2375 -17.30842,49.1625 -37.75168,106.5 l -37.16955,104.25 h -35.46538 -35.46537 z"
       id="path1" /></g></svg>
