<?xml version="1.0" encoding="UTF-8" standalone="no"?>
<!-- Created with Inkscape (http://www.inkscape.org/) -->

<svg
   width="52.709187mm"
   height="45.896893mm"
   viewBox="0 0 52.709187 45.896893"
   version="1.1"
   id="svg1"
   xml:space="preserve"
   xmlns:inkscape="http://www.inkscape.org/namespaces/inkscape"
   xmlns:sodipodi="http://sodipodi.sourceforge.net/DTD/sodipodi-0.dtd"
   xmlns="http://www.w3.org/2000/svg"
   xmlns:svg="http://www.w3.org/2000/svg"><sodipodi:namedview
     id="namedview1"
     pagecolor="#ffffff"
     bordercolor="#000000"
     borderopacity="0.25"
     inkscape:showpageshadow="2"
     inkscape:pageopacity="0.0"
     inkscape:pagecheckerboard="0"
     inkscape:deskcolor="#d1d1d1"
     inkscape:document-units="mm" /><defs
     id="defs1" /><g
     inkscape:label="Слой 1"
     inkscape:groupmode="layer"
     id="layer1"
     transform="translate(-9.6005213,-8.2271535)"><path
       style="fill:#ffffff"
       d="m 51.473537,53.792911 c -0.29104,-0.16818 -1.95791,-1.43848 -3.70416,-2.8229 -10.63145,-8.42854 -13.3998,-10.6907 -13.76494,-11.24797 -0.64224,-0.98018 -0.92494,-2.28074 -0.74302,-3.41835 0.19637,-1.22809 0.38817,-1.45641 8.19719,-9.75836 3.10712,-3.30325 5.64931,-6.1667 5.64931,-6.36323 0,-0.4322 -0.52408,-0.99232 -0.92848,-0.99232 -0.16141,0 -2.33865,1.33946 -4.83831,2.97656 -13.26446,8.68733 -15.55934,10.14949 -16.43202,10.4695 -0.52373,0.19205 -1.42848,0.2965 -2.01057,0.23212 -0.58208,-0.0644 -3.66026,-1.28509 -6.84039,-2.7127 -5.17726,-2.32415 -5.82467,-2.68502 -6.18949,-3.45004 -0.37745,-0.79153 -0.36953,-0.91936 0.10759,-1.73752 0.46253,-0.79311 0.85068,-0.99467 3.80824,-1.97754 3.48029,-1.15659 7.97804,-2.63089 29.75155,-9.75216 7.42157,-2.42731 14.00963,-4.5833902 14.64014,-4.7913002 1.81935,-0.59992 3.57012,0.0655 4.1005,1.5585602 0.15904,0.4477 -0.19925,2.88903 -2.33808,15.9314 -0.50115,3.05593 -1.50745,9.24718 -2.23623,13.75833 -2.12131,13.13087 -2.11712,13.11026 -2.80968,13.80283 -0.68862,0.68861 -2.47181,0.84251 -3.41915,0.29509 z"
       id="path2" /></g></svg>
