<?xml version="1.0" encoding="UTF-8" standalone="no"?>
<!-- Created with Inkscape (http://www.inkscape.org/) -->

<svg
   width="131.52843mm"
   height="131.45058mm"
   viewBox="0 0 131.52843 131.45058"
   version="1.1"
   id="svg1"
   xml:space="preserve"
   xmlns:inkscape="http://www.inkscape.org/namespaces/inkscape"
   xmlns:sodipodi="http://sodipodi.sourceforge.net/DTD/sodipodi-0.dtd"
   xmlns="http://www.w3.org/2000/svg"
   xmlns:svg="http://www.w3.org/2000/svg"><sodipodi:namedview
     id="namedview1"
     pagecolor="#ffffff"
     bordercolor="#000000"
     borderopacity="0.25"
     inkscape:showpageshadow="2"
     inkscape:pageopacity="0.0"
     inkscape:pagecheckerboard="0"
     inkscape:deskcolor="#d1d1d1"
     inkscape:document-units="mm" /><defs
     id="defs1" /><g
     inkscape:label="Слой 1"
     inkscape:groupmode="layer"
     id="layer1"
     transform="translate(-32.86937,-72.169142)"><path
       style="fill:#ffffff;image-rendering:auto"
       d="m 32.869373,203.43522 c 0,-0.10147 0.548945,-1.79811 1.219878,-3.77031 7.575852,-22.26916 9.464837,-27.85632 9.802605,-28.99374 l 0.395207,-1.33083 -1.854041,-3.56396 c -4.912717,-9.44355 -7.175365,-18.7923 -7.180285,-29.66729 -0.0089,-19.64263 8.413824,-37.174576 23.976901,-49.908126 4.89488,-4.00495 12.28142,-8.12224 18.65482,-10.39827 7.89155,-2.8182 14.50311,-3.82816 23.588122,-3.60325 10.58543,0.262055 17.92346,2.03416 27.04367,6.53096 3.42882,1.69061 9.86422,5.58459 10.45104,6.32379 0.0728,0.0917 1.02526,0.87304 2.11667,1.73641 7.55874,5.97942 14.67621,15.551776 18.47839,24.851776 3.45333,8.44671 4.83236,15.43639 4.83544,24.50858 0.002,5.83896 -0.41563,9.68445 -1.58758,14.61898 -5.09009,21.43201 -21.03504,38.98359 -41.83458,46.0499 -7.31086,2.48374 -13.02847,3.42792 -20.90209,3.45166 -10.894622,0.0328 -19.573292,-1.96916 -29.314122,-6.76222 l -2.19434,-1.07974 -5.61087,1.77092 c -3.08598,0.974 -6.14666,1.93027 -6.8015,2.12505 -0.65485,0.19477 -4.16719,1.31143 -7.80521,2.48147 -9.448688,3.03881 -15.086825,4.81273 -15.296585,4.81273 -0.09985,0 -0.18154,-0.083 -0.18154,-0.18449 z M 106.1659,189.85459 c 6.39339,-0.77386 12.24627,-2.47725 17.58785,-5.11868 10.91696,-5.39848 19.32614,-13.69105 24.86577,-24.52097 5.39597,-10.54904 6.97821,-22.9714 4.49925,-35.32421 -1.61252,-8.03533 -6.18687,-17.32555 -11.5426,-23.44236 -7.83115,-8.943986 -16.87836,-14.640396 -27.87659,-17.551986 -5.38496,-1.42558 -6.73224,-1.57901 -13.890622,-1.58188 -6.3733,-0.003 -6.94465,0.0384 -10.31875,0.73965 -6.61495,1.37479 -12.82054,3.75626 -17.96375,6.89379 -16.29862,9.94274 -26.190685,27.346086 -26.216503,46.123326 -0.01421,10.33583 3.041051,20.74841 8.559163,29.17033 l 1.71453,2.61676 -3.33709,9.93753 c -1.835392,5.46565 -3.277015,9.9976 -3.203602,10.07101 0.132866,0.13287 3.786092,-0.99667 14.961512,-4.62592 l 5.86739,-1.90546 2.27345,1.37324 c 6.01945,3.63591 12.51345,5.89879 20.12302,7.01199 2.91492,0.42642 10.849052,0.50283 13.897572,0.13384 z m 6.73993,-24.31618 c -3.53192,-0.91135 -11.59413,-3.88762 -14.706712,-5.42918 -4.63139,-2.29376 -9.77477,-6.25649 -14.62443,-11.26744 -1.98853,-2.05467 -3.54578,-3.8486 -3.46054,-3.98652 0.0852,-0.13791 0.0422,-0.21804 -0.0956,-0.17805 -0.29723,0.0862 -5.84123,-7.35756 -7.37798,-9.90622 -1.44941,-2.40381 -2.91694,-5.88718 -3.57266,-8.48021 -0.44322,-1.75269 -0.51891,-2.69747 -0.4168,-5.20269 0.19493,-4.78273 1.62153,-8.21828 4.73333,-11.39884 1.7258,-1.76393 3.32967,-2.47697 6.18393,-2.74921 2.25487,-0.21506 3.24362,0.089 4.01704,1.23527 0.93849,1.39094 6.16942,13.90473 6.16942,14.75891 0,0.96639 -1.23676,2.99277 -3.2803,5.37466 -2.34942,2.73842 -2.42169,3.09076 -1.0881,5.30539 4.0076,6.65529 10.61218,12.84301 17.200692,16.11506 2.50793,1.24551 5.05326,2.29662 5.56142,2.29662 1.14922,0 3.45173,-2.27926 6.62657,-6.55968 0.57124,-0.77016 1.3227,-1.4716 1.6699,-1.55874 1.02551,-0.25738 2.98241,0.52393 9.55617,3.81539 7.10456,3.55723 6.79586,3.23153 6.31983,6.66787 -0.56458,4.07556 -1.5448,5.84048 -4.43298,7.98172 -2.39736,1.77734 -4.69769,2.82542 -7.52951,3.43058 -3.11188,0.66501 -3.96738,0.63462 -7.45265,-0.26469 z"
       id="path1"
       inkscape:export-filename="path1.svg"
       inkscape:export-xdpi="196"
       inkscape:export-ydpi="196" /></g></svg>
